<?xml version="1.0" encoding="UTF-8" standalone="no"?>
<!-- Generator: Adobe Illustrator 22.0.1, SVG Export Plug-In . SVG Version: 6.00 Build 0)  -->

<svg
   version="1.1"
   id="Layer_1"
   x="0px"
   y="0px"
   viewBox="0 0 2087.3 2087.3"
   style="enable-background:new 0 0 2087.3 2087.3;"
   xml:space="preserve"
   sodipodi:docname="iain face-02.svg"
   inkscape:version="1.2.2 (b0a8486, 2022-12-01)"
   xmlns:inkscape="http://www.inkscape.org/namespaces/inkscape"
   xmlns:sodipodi="http://sodipodi.sourceforge.net/DTD/sodipodi-0.dtd"
   xmlns:xlink="http://www.w3.org/1999/xlink"
   xmlns="http://www.w3.org/2000/svg"
   xmlns:svg="http://www.w3.org/2000/svg"><defs
   id="defs9773" /><sodipodi:namedview
   id="namedview9771"
   pagecolor="#ffffff"
   bordercolor="#000000"
   borderopacity="0.25"
   inkscape:showpageshadow="2"
   inkscape:pageopacity="0.0"
   inkscape:pagecheckerboard="0"
   inkscape:deskcolor="#d1d1d1"
   showgrid="false"
   inkscape:zoom="0.30367371"
   inkscape:cx="1304.0312"
   inkscape:cy="1014.2465"
   inkscape:window-width="1440"
   inkscape:window-height="872"
   inkscape:window-x="0"
   inkscape:window-y="28"
   inkscape:window-maximized="0"
   inkscape:current-layer="Layer_1" />
<style
   type="text/css"
   id="style9744">
	.st0{fill:#FFFFFF;}
	.st1{fill:#5D5D5D;}
	.st2{fill:none;stroke:#FFFFFF;stroke-width:28.3465;stroke-linecap:round;stroke-linejoin:round;stroke-miterlimit:10;}
	.st3{fill:none;stroke:#000000;stroke-width:28.3465;stroke-linecap:round;stroke-linejoin:round;stroke-miterlimit:10;}
	.st4{fill:none;stroke:#FFFFFF;stroke-width:5.6693;stroke-linecap:round;stroke-linejoin:round;stroke-miterlimit:10;}
</style>
<rect
   class="st0"
   width="2087.3"
   height="2087.3"
   id="rect9746" />
<g
   id="g9768">
	<path
   class="st3"
   d="M867.3,1515.5c1.1,77.1-4.1,148.9,11.9,226c11.5,55.4,124.1,120.3,173.3,132.8c158.4,40,308.1,10.6,457.7-62.3   c111.8-54.4,203.5-151.5,204.5-249c-19.2-51.5-27.9-166.3-36.4-225c-9.8-68-14.9-189.7-20.6-226.2c-12.4-78-0.8-213.6-0.8-213.6   s126-23,126.2-98.4c0.2-71.1-68.4-113.1-132.2-94.5c31.4-296.6-69.5-394.1-223.8-474c-136.6-70.7-341.1-30.9-476.6,61   C748,429.4,691.5,528.7,662.4,819.7c-18,179.7,26.2,485.8,71.9,566.8c68.9,122.3,239.6,97.4,352.3,75.5"
   id="path9750" />
	<g
   id="g9754"
   transform="translate(-30.711633,2.2085872)">
		<path
   class="st3"
   d="m 718.5,1188.5 c 66.5,-38.9 195.4,-67 314.5,-67.8 104.9,-0.7 210,29.1 214.2,62.9 6.5,52.1 -77.3,85.6 -106.6,90.5 -135.7,22.7 -282.2,23.2 -411.7,-50.3"
   id="path9752" />
	</g>
	<g
   id="g9758"
   transform="translate(-30.711633,2.2085872)">
		<path
   class="st3"
   d="m 1387.4,1162.4 -277.7,22.7 c -15.5,1.3 -41,2.3 -56.6,2.4 l -334.6,1"
   id="path9756" />
	</g>
	<g
   id="g9762">
		<path
   class="st3"
   d="M304.4,786.7c0,0,131.5,17.5,200.6,2.8c53.6-11.5,102.7-26.7,156.8-34.9c37.6-5.7,89.1,13.4,100,55.8    c11.8,45.9-40.2,60.8-79.2,58.9c-54-2.6-85.9-18.5-79.7-66.4"
   id="path9760" />
	</g>
	<g
   id="g9766">
		<path
   class="st3"
   d="M1289.7,732.8c52.1,37.7,36.1,105.1-19.4,129c-61.8,26.6-127.6,25.8-157.3-41c-11.7-26.3-2.6-55.5-2.6-55.5    c4.6-14.9,20.7-30.5,35.7-34.8c0,0,46.8-13.2,74.4-21.2c18.5-5.4,103.9-18.9,166.8-38.7c76.6-24.2,128.5-49.4,128.5-49.4    c14-6.8,12.9-10.1-2.4-7.3c0,0-203.1,37.2-229,41.3c-77.4,12.5-195.1,37.6-195.1,37.6c-15.2,3.3-26.8,18.7-25.7,34.2    c0,0,7.4,105.5,8.2,168.9c0.4,34.2,5.3,87.1-8.6,119.6c-20.6,48.2-79.3-54.8-79.3-54.8c-7.7-13.5-20.4-13.6-28.2,0    c0,0-5,8.7-12.3,28c-4.5,11.8-8.4,36.6-22.3,41.6c-26.9,9.7-55.9-39-55.9-39c-8-13.4-20.3-13-27.3,0.9c0,0-13.8,27.1-31.6,27.4    c-19.1,0.3-29-38.1-29.9-50.7c-5.1-70.1,3-141,2.3-211.3c-0.3-33.4,2.4-69.7,2.4-69.7c1.2-15.5-10.4-25.8-25.7-22.9    c0,0-10.7,2.1-30.3,10.6c-31.9,13.8-283.9,79.1-322,84.5c-22.5,3.2-98.8,26.7-98.8,26.7"
   id="path9764" />
	</g>
</g>
</svg>
